<svg xmlns="http://www.w3.org/2000/svg" width="512" height="651.201" viewBox="0 0 512 651.201">
  <g id="flash_1_" data-name="flash (1)" transform="translate(-319.65 -103.986)">
    <path id="Path_1" data-name="Path 1" d="M555.92,104.185q9.513-1.394,14.141,6.974a59.091,59.091,0,0,1,5.424,22.471q.854,106.537.581,213.083,81.94.063,163.88-.387l41.454.194a64.48,64.48,0,0,1,36.805,12.01q16.83,15.043,12.591,37.386a83.345,83.345,0,0,1-12.785,29.444Q717.865,580.33,617.714,735.3a86.2,86.2,0,0,1-12.979,14.528q-18.846,13.93-26.151-8.33a78.61,78.61,0,0,1-2.712-15.884q-.291-106.348-.194-212.7-102.861.1-205.722-.194a89.18,89.18,0,0,1-30.606-5.811q-26.662-12.57-17.24-40.873a94.16,94.16,0,0,1,8.523-17.821q99.326-158.552,198.361-317.3a96.441,96.441,0,0,1,17.628-21.5A33.141,33.141,0,0,1,555.92,104.185Z" transform="translate(0 0)" fill="#606060" fill-rule="evenodd" opacity="0.997"/>
  </g>
</svg>
